# xmcd
#
# Track frame offsets:
#	150
#	63092
#	94690
#	131690
#	187522
#	205710
#	240105
#
# Disc length: 3498 seconds
#
# Revision: 1
# Processed by: cddbd v1.5.1PL0 Copyright (c) Steve Scherf et al.
# Submitted via: audiograbber 1.83.01
#
DISCID=480da807
DTITLE=Mehmet Emin Ay - Dolunay/Taleal Bedru
DYEAR=1900
DGENRE=
TTITLE0=Taleal Bedru
TTITLE1=Hicret
TTITLE2=Nat'i Serif
TTITLE3=Innilte ya Riha's-Saba
TTITLE4=Münacat
TTITLE5=Nat'i Serif
TTITLE6=Tesbihat
EXTD=
EXTT0=
EXTT1=
EXTT2=
EXTT3=
EXTT4=
EXTT5=
EXTT6=
PLAYORDER=
